# xmcd
#
# Track frame offsets: 
#        150
#        18478
#        45946
#        64176
#        83676
#        93203
#        114668
#        133773
#        149598
#        167954
#        184461
#        192318
#        208754
#        224073
#        240229
#        258229
#        278390
#
# Disc length: 3862 seconds
#
# Revision: 0
# Processed by: cddbd v1.5.2PL0 Copyright (c) Steve Scherf et al.
# Submitted via: ExactAudioCopy v0.95b4
#
DISCID=f90f1411
DTITLE=Various Artist - Clouds Over The Pacific (Stones Throw 2010 Sampler
DYEAR=2010
DGENRE=Other
TTITLE0=Aloe Blacc - I Need A Dollar
TTITLE1=Arabian Prince - Let's Hit The Beach (CX KiDTRONiK Remix)
TTITLE2=Baron Zen and Tekblazer - Overload
TTITLE3=Bruce Haack - Stand Up Lazarus (PB Wolf Remix)
TTITLE4=CX KiDTRONiK - Let's Go Crazy (Atari Teenage Riot Remix)
TTITLE5=Dam-Funk - Hood Pass Intact feat. MC Eiht
TTITLE6=Danimals - Nightshift In Blue
TTITLE7=Guilty Simpson - OJ Simpson
TTITLE8=James Pants - Clouds Over The Pacific
TTITLE9=J-Rocc - Chasing The Sun/Dragon
TTITLE10=Madvillain - Papermill
TTITLE11=Mayer Hawthorne - I Need You
TTITLE12=M.E.D. - Where I'm From feat. Aloe Blacc
TTITLE13=Steve Arrington - I Be Trippin
TTITLE14=Strong Arm Steady - Best Of Times feat. Phonte
TTITLE15=Tony Cook - What's On Your Mind feat. Dam-Funk
TTITLE16=Vex Ruffin - Man With The Plan
EXTD=
EXTT0=
EXTT1=
EXTT2=
EXTT3=
EXTT4=
EXTT5=
EXTT6=
EXTT7=
EXTT8=
EXTT9=
EXTT10=
EXTT11=
EXTT12=
EXTT13=
EXTT14=
EXTT15=
EXTT16=
PLAYORDER=
